<svg width="638" height="567" viewBox="0 0 638 567" fill="none" xmlns="http://www.w3.org/2000/svg">
<path d="M284.266 1.78155C252.932 7.51489 229.999 31.3816 220.799 68.0482C217.599 80.3149 215.732 92.0482 213.999 110.582L213.199 119.248L205.599 120.848C191.066 123.782 188.666 129.248 195.999 141.915C199.466 148.182 210.932 159.782 213.466 159.782C213.999 159.782 214.932 163.248 215.332 167.382C215.866 171.648 217.466 180.315 218.932 186.848L221.599 198.582L216.932 209.648C210.532 224.715 208.799 233.782 208.799 251.782C208.799 269.782 210.532 276.848 216.666 283.515C220.399 287.648 221.999 288.448 226.399 288.448C237.599 288.448 240.799 280.582 237.066 262.448C235.732 255.382 235.732 254.448 239.066 247.248L242.666 239.515L248.132 244.048L253.599 248.715L253.466 266.582C253.199 287.382 254.532 295.382 260.799 308.982C264.266 316.448 267.599 321.115 275.066 328.315C280.266 333.515 286.666 338.715 289.066 339.648C291.332 340.582 293.332 341.915 293.332 342.582C293.332 343.248 290.932 344.982 288.132 346.448C285.199 347.782 281.599 350.582 280.132 352.582C274.666 359.515 277.866 369.248 286.266 371.248C291.332 372.582 303.199 369.782 309.999 365.782C316.799 361.782 326.266 348.582 327.332 341.382C329.199 328.982 329.866 327.115 333.066 326.715C335.599 326.315 336.132 326.715 335.599 328.715C335.199 330.048 334.532 334.715 333.999 339.115C332.132 355.782 323.732 376.982 315.199 386.315C301.332 401.782 276.399 401.382 261.066 385.515C254.532 378.715 247.332 366.582 243.999 356.448C240.666 346.315 237.866 343.515 231.066 343.515C227.332 343.515 225.332 344.448 223.066 347.115C219.199 351.515 219.199 356.182 223.066 366.848C231.332 389.515 245.999 407.115 263.732 415.515C273.599 420.182 274.666 420.448 287.999 420.448C299.332 420.448 303.466 419.915 310.132 417.382C327.199 410.848 339.866 396.715 346.932 376.315C351.199 363.915 354.666 343.382 354.666 329.782V320.448L363.999 315.515L373.332 310.582L381.999 315.248C396.666 322.848 405.466 321.382 415.732 309.648C423.066 301.382 426.799 293.382 427.599 283.915C428.532 273.515 427.332 267.515 423.332 263.248C419.599 259.248 412.799 258.582 406.799 261.782L403.066 263.648L403.732 257.782C404.666 249.115 403.066 243.248 397.999 236.582C395.066 232.715 393.066 228.182 392.132 223.382C391.466 219.382 389.332 212.448 387.466 208.048C384.399 200.315 384.266 199.515 386.132 193.515C389.466 182.582 391.999 162.715 392.799 139.115C393.599 121.515 394.266 115.115 396.266 110.715C399.866 102.048 399.466 97.2482 394.932 95.6482C391.466 94.4482 391.066 93.5149 388.799 81.3816C383.732 54.5816 373.599 33.2482 359.332 20.0482C341.199 3.24822 313.466 -3.55178 284.266 1.78155ZM322.932 32.8482C339.466 40.9816 351.199 62.9816 354.132 91.3816C355.199 101.648 353.999 102.182 339.199 98.4482C325.999 94.9816 302.799 94.7149 286.932 97.7816C274.532 100.182 259.866 104.448 254.399 107.248C249.866 109.648 249.866 110.048 252.666 91.1149C257.332 57.7816 268.666 38.1816 287.466 31.1149C295.599 28.0482 315.066 28.9816 322.932 32.8482ZM394.799 97.1149C398.932 99.3816 397.732 100.448 389.066 102.315C378.399 104.448 363.466 111.382 357.066 116.982C354.399 119.382 351.466 123.382 350.666 125.915C349.332 129.782 349.466 131.382 351.999 136.315C355.599 143.915 359.199 146.182 368.132 146.715C375.066 147.115 375.466 147.382 377.866 152.315C381.066 158.982 382.266 168.448 379.999 171.115C379.066 172.182 377.066 173.115 375.466 173.115C370.399 173.115 366.532 177.115 361.999 187.248C351.732 209.648 331.199 221.648 302.666 221.648C279.466 221.782 266.799 217.248 250.666 202.982C242.799 196.048 239.999 194.448 234.799 193.648C224.666 192.182 223.866 190.315 226.932 175.248C228.132 168.848 228.932 167.382 231.866 166.315C239.066 163.782 241.732 161.648 243.466 157.648C248.932 144.715 233.599 132.315 206.932 128.048L193.999 125.915L201.999 123.382C206.399 122.048 217.466 119.648 226.532 118.182C239.466 115.915 244.532 114.448 249.466 111.382C256.399 107.115 259.999 107.382 259.999 112.048C259.999 116.582 265.332 134.848 267.466 137.782C268.932 139.782 269.866 140.048 271.732 138.982C274.932 136.848 275.732 132.848 275.866 116.315L275.999 101.382L279.466 100.582C281.466 100.048 283.199 99.9149 283.466 100.048C283.599 100.315 285.466 107.782 287.332 116.448C290.666 132.315 295.466 144.582 297.999 144.315C300.799 144.048 303.999 134.448 305.999 119.115C309.066 96.9816 309.066 97.1149 311.866 97.1149C314.132 97.1149 314.399 98.4482 314.932 109.648C315.466 122.582 317.866 129.115 322.132 129.115C324.932 129.115 327.866 121.382 329.732 108.982C331.466 97.1149 331.466 97.1149 341.866 100.582C347.866 102.715 348.932 102.582 360.399 99.9149C377.466 96.0482 377.199 96.0482 385.066 95.9149C388.932 95.9149 393.332 96.4482 394.799 97.1149ZM306.666 101.382C306.666 106.048 303.732 124.715 301.599 134.315C298.666 146.715 295.599 143.382 290.666 122.448C289.066 115.515 287.199 107.648 286.532 105.248C285.999 102.715 285.732 100.315 285.999 100.048C286.532 99.5149 298.399 97.7816 304.399 97.2482C306.132 97.1149 306.666 98.1816 306.666 101.382ZM328.666 98.7149C329.466 99.5149 326.932 116.182 325.066 121.782C321.466 132.715 317.732 127.115 316.399 108.848L315.599 96.7149L321.866 97.3816C325.332 97.7816 328.399 98.3149 328.666 98.7149ZM274.666 114.582C274.666 126.315 272.666 138.448 270.799 138.448C269.732 138.448 268.132 135.515 265.732 129.115C263.732 123.915 260.799 107.915 261.599 106.982C262.532 106.182 271.999 102.582 273.732 102.448C274.266 102.448 274.666 107.915 274.666 114.582ZM397.332 103.115C397.332 105.915 385.599 127.115 376.932 139.648C373.066 145.248 372.932 145.382 366.932 144.715C361.999 144.182 359.866 143.115 356.399 139.248C347.466 129.515 352.266 119.648 369.866 111.115C381.332 105.648 397.332 100.982 397.332 103.115ZM205.732 129.782C209.999 130.315 217.199 131.915 221.732 133.382C243.999 140.582 249.866 157.782 232.266 163.915C228.666 165.115 227.066 164.848 219.732 161.115C206.266 154.315 196.266 143.115 193.999 132.048C193.199 128.048 193.332 127.648 195.466 128.182C196.932 128.582 201.466 129.248 205.732 129.782ZM374.666 187.248C374.666 187.515 372.666 188.715 370.399 189.915C367.999 191.115 364.666 193.382 363.066 194.848C360.132 197.382 358.666 196.448 361.066 193.648C361.732 192.982 363.066 190.315 363.999 187.782C367.066 179.782 367.999 179.115 371.599 183.248C373.332 185.248 374.666 187.115 374.666 187.248ZM379.999 195.782L382.666 200.982L378.932 202.982C373.332 205.915 365.332 215.248 365.332 218.982C365.332 223.515 367.332 224.315 372.399 221.648C382.399 216.448 386.666 214.448 387.732 214.448C391.199 214.448 394.666 249.248 392.399 259.915L391.332 264.448L390.532 258.448L389.599 252.448L389.732 258.715C389.866 262.315 389.599 265.115 389.066 265.115C388.399 265.115 387.999 266.315 387.999 267.648C387.999 269.115 386.666 271.248 385.066 272.315C379.599 276.182 378.799 275.248 379.332 264.048L379.866 253.782L378.799 262.848C377.599 274.048 376.266 275.515 371.466 271.648C367.732 268.715 367.732 268.582 368.266 255.915C368.799 246.315 368.399 242.182 366.932 239.115C363.732 232.715 354.666 219.515 350.132 214.715L345.999 210.315L350.666 206.048C356.799 200.315 374.666 188.982 376.266 189.915C376.799 190.315 378.532 192.982 379.999 195.782ZM238.399 197.782C240.132 199.382 244.132 209.382 243.332 210.182C243.199 210.448 239.999 208.848 236.399 206.715C232.666 204.448 228.399 202.315 226.932 201.782C223.732 200.848 223.199 198.448 225.599 196.048C227.466 194.182 235.732 195.248 238.399 197.782ZM258.666 212.982C258.532 213.382 255.732 217.515 252.266 222.182C248.666 226.715 243.199 235.782 239.999 242.182L234.266 253.782L235.732 262.848C237.999 275.915 237.732 280.715 234.666 283.782C233.199 285.248 231.466 286.448 230.799 286.448C229.332 286.448 226.932 280.582 225.466 273.115C224.666 269.248 224.266 268.315 224.132 270.582C223.999 272.448 224.932 276.982 225.999 280.448C227.066 284.048 227.732 287.115 227.466 287.382C227.332 287.648 225.199 287.115 222.932 286.315C218.532 284.848 217.599 282.982 215.866 272.448L214.799 265.782L215.066 272.048C215.199 275.648 214.932 278.448 214.532 278.448C211.066 278.448 208.532 243.115 211.066 232.715C212.266 228.182 214.799 228.048 224.666 232.582C228.932 234.448 233.199 235.648 234.132 235.248C239.599 233.115 232.132 222.048 221.999 217.115L216.132 214.315L218.932 208.315C220.532 205.115 222.399 202.448 223.199 202.448C223.866 202.448 228.132 204.582 232.799 207.115C237.332 209.648 241.999 211.782 243.199 211.782C245.866 211.782 245.999 206.982 243.332 202.448C239.866 196.448 241.199 196.848 249.999 204.582C254.799 208.848 258.666 212.582 258.666 212.982ZM386.666 211.782C386.666 212.315 384.666 213.515 382.399 214.582C379.999 215.515 376.399 217.382 374.399 218.715C372.532 220.048 369.999 221.115 368.799 221.115C362.799 221.115 370.666 209.782 380.532 204.182C382.932 202.848 383.466 203.115 384.932 206.715C385.866 208.982 386.666 211.248 386.666 211.782ZM338.666 216.982C337.999 218.448 334.799 221.648 331.732 224.315C315.999 237.782 290.666 237.782 274.799 224.315C271.732 221.648 269.466 219.248 269.732 218.982C269.999 218.715 274.932 219.648 280.666 221.115C298.532 225.648 318.532 224.182 333.866 217.248C336.932 215.782 339.466 214.582 339.732 214.582C339.866 214.448 339.466 215.648 338.666 216.982ZM230.799 226.182C232.932 228.582 234.666 231.115 234.666 231.782C234.666 233.648 230.532 233.382 226.399 231.248C224.532 230.182 220.799 228.715 218.132 227.782C212.799 226.048 212.799 225.915 214.799 220.048L216.132 216.048L221.599 218.848C224.532 220.448 228.666 223.782 230.799 226.182ZM400.666 244.315C404.399 253.248 402.399 264.048 395.999 269.782C394.399 271.248 391.999 274.582 390.666 277.115C387.599 282.982 385.066 292.048 386.799 291.115C387.466 290.582 387.999 289.515 387.999 288.715C387.999 285.515 394.399 273.648 398.132 269.915C409.332 258.715 420.399 258.048 424.799 268.448C426.799 273.382 427.332 284.315 425.466 283.248C424.932 282.848 424.666 281.115 424.932 279.382C425.732 275.382 421.999 271.382 418.532 272.448C416.799 272.982 415.999 272.715 415.999 271.382C415.999 268.048 412.532 266.048 409.466 267.782C403.332 270.982 404.932 279.782 411.466 279.782C413.466 279.782 414.666 280.582 414.666 281.782C414.666 282.982 415.599 284.182 416.666 284.582C417.732 285.115 418.666 286.582 418.666 288.048C418.666 289.515 419.732 290.982 421.332 291.382C422.799 291.782 423.999 292.848 423.999 293.648C423.999 295.115 418.132 304.582 414.399 309.248C410.666 313.915 402.266 318.448 397.466 318.448C392.532 318.448 379.732 313.248 375.732 309.515C373.732 307.648 373.066 307.782 369.066 310.848C357.332 319.648 332.799 327.115 320.799 325.648C306.799 323.782 296.532 318.982 286.399 309.382C283.599 306.715 281.066 304.982 280.666 305.382C279.332 306.715 292.399 317.248 300.399 321.248C304.666 323.515 312.532 325.915 317.732 326.715L327.466 328.315L326.532 335.782C325.066 348.048 317.466 360.315 308.132 364.982C302.666 367.915 291.999 370.982 291.066 370.048C289.999 368.848 294.532 361.382 298.132 358.582C301.866 355.648 301.466 354.848 297.332 357.115C295.866 357.915 293.199 361.115 291.332 364.315C288.666 368.715 287.332 370.048 285.332 369.515C281.999 368.582 280.532 366.715 279.466 361.648C278.399 356.582 281.732 351.915 289.999 347.115C295.199 343.915 296.132 343.782 301.599 345.248C305.332 346.315 308.932 346.448 311.466 345.782C314.799 344.715 314.266 344.448 306.666 343.782C295.599 342.848 287.066 338.315 275.999 327.382C260.666 312.048 254.666 295.915 254.666 270.582C254.666 262.848 255.066 255.115 255.466 253.515L256.266 250.582L263.866 254.448C293.199 269.382 332.266 265.382 357.599 244.715C366.799 237.248 367.332 237.782 366.799 255.915C366.399 267.915 366.532 268.982 369.466 271.648C375.466 277.248 382.399 276.982 388.266 271.115C392.666 266.715 394.666 258.582 394.666 244.848C394.666 234.582 394.799 234.048 396.666 236.848C397.866 238.448 399.599 241.782 400.666 244.315ZM414.666 272.182C414.666 277.915 408.932 280.715 407.332 275.782C406.266 272.448 408.666 269.115 412.132 269.115C413.866 269.115 414.666 270.048 414.666 272.182ZM423.466 276.315C424.532 279.115 421.466 284.048 418.932 283.515C416.532 283.115 415.332 279.515 416.532 276.315C417.466 273.915 422.532 273.915 423.466 276.315ZM424.666 287.248C424.666 288.582 423.599 289.915 422.399 290.182C419.999 290.582 418.932 286.582 420.932 284.582C422.532 283.115 424.666 284.582 424.666 287.248ZM351.599 326.715C346.666 329.382 341.332 334.848 341.332 337.248C341.332 339.115 342.666 339.915 346.799 340.582L352.399 341.515L351.466 349.382C351.066 353.782 350.399 357.915 349.999 358.448C349.599 359.115 345.999 360.315 341.999 361.115C337.999 361.915 334.266 363.248 333.732 364.182C333.199 364.982 335.599 368.048 339.199 371.248L345.599 376.848L341.999 384.982C339.999 389.515 337.732 393.115 337.066 393.115C336.266 393.115 332.132 392.182 327.732 390.982C315.199 387.782 313.732 389.648 318.666 402.715C320.132 406.582 320.799 410.182 320.132 410.848C319.599 411.382 315.466 413.382 311.199 415.115L303.332 418.315L299.332 413.382C293.599 406.448 290.932 403.782 289.199 403.782C288.532 403.782 286.399 407.115 284.532 411.115C281.866 416.848 280.532 418.448 278.132 418.448C274.532 418.448 262.932 414.582 261.999 413.115C261.599 412.448 262.799 408.982 264.666 405.382C270.266 394.182 268.666 393.115 257.332 400.315L249.999 404.982L246.266 401.382C244.132 399.382 240.666 395.515 238.532 392.848L234.532 387.915L243.599 383.248L252.799 378.715L258.932 385.248C275.466 402.582 300.266 403.782 315.599 388.048C325.066 378.315 333.866 354.715 336.666 331.382C337.332 326.048 337.999 325.115 340.399 324.982C341.999 324.982 345.466 324.182 347.999 323.248C351.999 321.782 352.799 321.782 353.199 323.515C353.332 324.582 352.666 326.048 351.599 326.715ZM352.799 331.248C352.399 332.448 351.999 334.448 351.999 335.915C351.999 337.915 351.066 338.448 347.332 338.448C341.066 338.448 341.332 335.915 347.999 331.382C352.132 328.582 353.866 328.448 352.799 331.248ZM236.932 347.115C238.532 348.315 240.932 352.848 242.666 357.915C244.132 362.715 246.932 369.115 248.799 372.048C250.666 374.982 251.999 377.515 251.732 377.648C251.466 377.782 247.466 379.648 242.932 381.782C232.799 386.448 233.199 386.715 226.532 370.715C220.532 356.315 220.266 352.715 224.399 348.582C228.266 344.715 232.666 344.182 236.932 347.115ZM347.732 368.182L346.132 374.315L341.066 370.715C338.399 368.715 336.266 366.448 336.399 365.782C336.799 364.582 348.132 360.982 349.066 361.782C349.199 361.915 348.666 364.848 347.732 368.182ZM331.866 394.048L336.399 395.115L330.532 401.515C327.199 404.982 324.132 407.782 323.732 407.782C322.932 407.782 317.332 394.048 317.332 392.315C317.332 391.382 325.199 392.315 331.866 394.048ZM264.532 401.382C263.199 405.782 259.866 410.448 258.266 410.448C257.466 410.448 255.732 409.382 254.399 408.182C251.999 406.048 252.132 405.782 257.599 402.182C264.532 397.648 265.866 397.515 264.532 401.382ZM299.999 417.382C299.999 418.048 296.399 418.448 291.866 418.448C284.132 418.448 283.866 418.315 284.799 415.382C285.199 413.782 286.532 410.715 287.599 408.715L289.466 404.982L294.799 410.715C297.599 413.915 299.999 416.848 299.999 417.382Z" fill="#3ABE49"/>
<path d="M313.599 154.582C309.999 155.915 310.399 159.248 314.132 158.715C321.466 157.782 325.999 158.448 329.599 161.115C332.399 163.248 333.999 163.648 335.066 162.582C335.999 161.648 335.866 160.582 334.666 159.115C330.266 153.782 320.666 151.648 313.599 154.582Z" fill="black"/>
<path d="M276.399 158.448C271.199 161.515 268.399 166.048 270.532 168.182C271.466 169.115 273.066 168.315 275.866 165.382C278.932 161.915 280.799 161.115 285.199 161.115C288.932 161.115 290.666 160.582 290.666 159.248C290.666 155.115 282.532 154.715 276.399 158.448Z" fill="black"/>
<path d="M318.932 173.382C316.532 175.782 316.799 183.782 319.332 183.782C321.732 183.782 324.266 179.115 323.732 175.515C323.199 172.048 321.199 171.115 318.932 173.382Z" fill="black"/>
<path d="M285.866 177.782C284.799 180.315 288.799 186.448 291.332 186.448C293.599 186.448 293.999 182.182 291.999 178.315C290.266 175.248 286.932 174.982 285.866 177.782Z" fill="black"/>
<path d="M339.332 189.115C335.999 190.582 339.466 190.582 343.999 189.115C346.666 188.315 346.799 188.048 344.666 188.048C343.199 188.048 340.799 188.448 339.332 189.115Z" fill="black"/>
<path d="M303.066 193.248C300.666 193.915 298.666 195.248 298.666 196.182C298.666 198.182 308.799 208.182 312.932 210.315C320.132 213.915 329.332 209.515 329.332 202.448C329.332 200.315 328.932 198.315 328.399 198.048C327.732 197.648 327.332 199.515 327.332 202.182C327.332 206.182 326.666 207.382 323.599 208.848C319.866 210.582 315.866 210.315 312.266 208.048C310.932 207.115 311.066 205.648 313.199 200.582L315.999 194.315L312.532 193.115C308.666 191.648 308.799 191.648 303.066 193.248ZM313.332 195.248C313.332 195.648 312.399 198.182 311.199 200.715L308.932 205.248L304.532 200.982C302.132 198.582 300.399 196.182 300.799 195.515C301.599 194.315 313.332 194.048 313.332 195.248Z" fill="black"/>
<path d="M340.399 194.048C341.599 194.315 343.466 194.315 344.399 194.048C345.199 193.648 344.266 193.382 341.999 193.382C339.866 193.382 339.066 193.648 340.399 194.048Z" fill="black"/>
<path d="M265.999 195.782C267.466 196.448 269.866 196.848 271.332 196.848C273.466 196.848 273.332 196.582 270.666 195.782C266.132 194.315 262.666 194.315 265.999 195.782Z" fill="black"/>
<path d="M339.999 198.582C339.999 199.248 340.799 199.782 341.732 199.782C342.532 199.782 344.799 200.182 346.666 200.715C351.466 201.915 349.199 199.915 344.132 198.448C341.599 197.782 339.999 197.782 339.999 198.582Z" fill="black"/>
<path d="M267.732 200.715C265.599 200.982 263.999 201.782 263.999 202.315C263.999 203.648 271.866 202.448 272.799 200.982C273.199 200.315 273.066 199.915 272.399 199.915C271.866 200.048 269.732 200.448 267.732 200.715Z" fill="black"/>
<path d="M269.866 207.115C268.532 208.182 267.999 209.115 268.799 209.115C269.466 209.115 271.332 208.182 272.799 207.115C274.132 206.048 274.666 205.115 273.866 205.115C273.199 205.115 271.332 206.048 269.866 207.115Z" fill="black"/>
<path d="M289.999 209.115C292.399 211.648 295.199 213.115 297.466 213.115C301.732 213.115 307.999 210.582 307.999 208.848C307.999 208.182 306.666 208.582 305.066 209.648C300.666 212.848 295.066 212.315 291.199 208.448C286.532 203.648 285.332 204.315 289.999 209.115Z" fill="black"/>
<path d="M403.066 285.382C400.132 286.848 395.999 293.915 395.999 297.515C395.999 298.582 397.199 300.982 398.799 302.982C404.532 310.182 415.466 305.382 416.932 294.982C418.132 286.048 411.332 281.382 403.066 285.382ZM413.866 288.048C416.932 292.315 416.532 296.315 412.532 301.115C405.199 309.648 394.799 303.115 399.199 292.582C402.399 284.982 410.132 282.582 413.866 288.048Z" fill="black"/>
<path d="M283.999 355.648C281.466 357.782 279.599 359.782 279.999 360.182C280.399 360.582 283.066 358.848 285.866 356.315C288.799 353.782 290.532 351.782 289.866 351.782C289.199 351.782 286.532 353.515 283.999 355.648Z" fill="black"/>
<path d="M118.532 5.51488C112.266 7.91488 107.199 11.9149 102.532 18.1815C98.6656 23.3815 4.13229 171.782 1.59896 176.715C-0.934377 181.515 -0.401043 191.515 2.79896 195.915C8.39896 203.782 8.26563 203.782 66.6656 203.782H119.999V226.582V249.382L124.399 253.782C132.666 262.048 145.466 261.115 151.599 251.915C154.532 247.648 154.666 246.048 154.666 225.648V203.782H170.132C185.332 203.782 185.599 203.782 189.466 199.915C192.132 197.248 193.332 194.582 193.332 191.782C193.332 186.848 190.266 180.448 187.332 179.248C186.132 178.848 178.266 178.448 169.866 178.448H154.799L154.399 98.7149C153.999 10.0482 154.532 15.9149 144.666 8.44821C138.932 4.04821 126.266 2.71488 118.532 5.51488ZM119.999 109.782V178.448H77.199C41.8656 178.448 34.5323 178.182 35.0656 176.715C35.999 174.315 118.932 41.1149 119.599 41.1149C119.732 41.1149 119.999 72.0482 119.999 109.782Z" fill="#3ABE49"/>
<path d="M542.266 5.38156C531.866 8.18156 526.666 15.3816 473.466 99.1149C425.732 174.048 422.666 179.382 422.666 185.115C422.666 188.715 423.732 192.848 425.332 195.382C430.399 203.782 430.266 203.782 489.199 203.782H542.532L542.932 226.982C543.332 249.515 543.466 250.315 546.532 253.648C551.199 258.582 558.666 260.582 565.066 258.715C567.866 257.782 571.599 255.648 573.466 253.648C576.532 250.315 576.666 249.515 577.066 226.982L577.466 203.782H592.799C607.999 203.782 608.266 203.782 612.132 199.915C617.199 194.715 617.466 187.115 612.666 181.915C609.599 178.582 609.066 178.448 593.332 178.448H577.332V101.382C577.332 52.8482 576.799 22.5816 575.999 19.5149C572.532 7.38156 557.999 1.24823 542.266 5.38156ZM542.666 109.782V178.448H499.999C476.532 178.448 457.332 178.048 457.332 177.648C457.332 177.248 465.599 163.648 475.732 147.382C485.866 131.115 504.932 100.582 517.999 79.3816C531.066 58.3149 541.999 41.1149 542.266 41.1149C542.532 41.1149 542.666 72.0482 542.666 109.782Z" fill="#3ABE49"/>
<path d="M2.93228 265.382C0.798942 267.515 0.798942 292.048 2.93228 294.182C5.46561 296.715 10.2656 296.048 12.5323 292.848C13.9989 290.715 14.6656 286.715 14.6656 279.782C14.6656 272.848 13.9989 268.848 12.5323 266.715C10.2656 263.515 5.46561 262.848 2.93228 265.382ZM10.5323 266.315C11.7323 267.115 12.6656 270.582 13.0656 275.648C13.8656 286.582 12.5323 292.715 9.19894 293.782C4.13228 295.382 2.66561 292.315 2.66561 279.915C2.66561 266.315 4.79894 262.715 10.5323 266.315Z" fill="black"/>
<path d="M20.2656 265.382C18.1323 267.515 18.1323 292.048 20.2656 294.182C22.799 296.715 27.599 296.048 29.8656 292.848C31.3323 290.715 31.999 286.715 31.999 279.782C31.999 272.848 31.3323 268.848 29.8656 266.715C27.599 263.515 22.799 262.848 20.2656 265.382ZM27.7323 266.715C28.799 267.782 29.3323 272.848 29.3323 280.582C29.3323 291.915 29.0656 292.982 26.6656 293.782C21.4656 295.382 19.999 292.315 19.999 279.915C19.999 268.715 21.0656 265.115 24.6656 265.115C25.4656 265.115 26.799 265.782 27.7323 266.715Z" fill="black"/>
<path d="M36.2656 280.048C36.399 289.115 36.6656 293.248 36.9323 289.382C37.4656 282.848 37.7323 282.448 41.199 282.448C46.399 282.448 47.999 280.182 47.999 272.848C47.999 265.915 45.999 263.782 39.4656 263.782H35.999L36.2656 280.048ZM45.3323 267.115C47.199 268.315 47.0656 277.515 45.0656 279.515C44.1323 280.448 42.1323 281.115 40.399 281.115C37.599 281.115 37.3323 280.582 37.3323 273.115C37.3323 265.248 37.4656 265.115 40.6656 265.648C42.399 266.048 44.5323 266.582 45.3323 267.115Z" fill="black"/>
<path d="M54.1323 265.915C50.2657 269.782 51.4657 275.248 57.3323 279.915C61.599 283.382 62.6657 285.115 62.6657 288.582C62.6657 296.048 54.399 296.182 52.9323 288.715C52.399 286.182 52.399 286.182 52.1323 289.115C51.999 293.248 54.1323 295.782 57.999 295.782C62.1323 295.782 63.8657 294.048 64.799 289.515C65.599 285.782 64.9323 284.715 59.3323 279.382C53.999 274.448 53.0657 272.982 53.7323 270.182C55.199 264.582 62.6657 263.782 62.6657 269.248C62.6657 270.582 63.3323 271.782 63.999 271.782C65.8657 271.782 65.599 270.182 63.199 266.715C60.799 263.248 57.0657 262.982 54.1323 265.915Z" fill="black"/>
<path d="M67.999 293.782C67.999 294.848 68.6656 295.782 69.3323 295.782C70.1323 295.782 70.6656 294.848 70.6656 293.782C70.6656 292.715 70.1323 291.782 69.3323 291.782C68.6656 291.782 67.999 292.715 67.999 293.782Z" fill="black"/>
<path d="M74.799 293.915C74.799 295.382 75.199 295.782 75.599 294.715C75.999 293.782 75.8656 292.582 75.4656 292.182C75.0656 291.648 74.6656 292.448 74.799 293.915Z" fill="black"/>
<path d="M80.1323 293.915C80.1323 295.382 80.5323 295.782 80.9323 294.715C81.3323 293.782 81.199 292.582 80.799 292.182C80.399 291.648 79.999 292.448 80.1323 293.915Z" fill="black"/>
<path d="M1.59894 326.048C1.73228 334.715 1.99894 338.982 2.26561 335.382C2.66561 330.182 3.19894 329.115 5.46561 329.115C11.1989 329.115 13.3323 326.715 13.3323 320.048C13.3323 312.448 11.7323 310.448 5.73228 310.448H1.33228L1.59894 326.048ZM10.3989 313.382C13.0656 316.048 12.3989 324.848 9.46561 326.448C3.86561 329.382 2.66561 328.315 2.66561 319.782C2.66561 312.315 2.93228 311.782 5.73228 311.782C7.46561 311.782 9.46561 312.448 10.3989 313.382Z" fill="black"/>
<path d="M19.8657 325.782C17.999 334.182 16.9323 341.115 17.4657 341.115C17.999 341.115 18.6657 339.782 18.9323 338.048C19.3323 335.515 20.1323 335.115 24.6657 335.115C29.199 335.115 29.999 335.515 30.399 338.048C30.6657 339.782 31.3323 341.115 31.8657 341.115C32.399 341.115 31.3323 334.182 29.4657 325.782C27.7323 317.382 25.4657 310.448 24.6657 310.448C23.8657 310.448 21.7323 317.382 19.8657 325.782ZM28.5323 328.848C29.4657 332.982 29.4657 333.115 24.799 333.115C19.4657 333.115 19.4657 333.115 21.199 326.448C21.8657 323.915 22.799 319.915 23.3323 317.782L24.399 313.782L25.999 319.115C26.9323 322.048 28.1323 326.448 28.5323 328.848Z" fill="black"/>
<path d="M38.6657 311.782C36.5323 313.115 35.0657 330.448 36.5323 336.448C37.599 340.848 42.6657 343.248 46.5323 341.248C48.799 339.915 49.3323 338.448 49.3323 332.448C49.3323 326.048 49.0657 325.115 46.6657 325.115C45.199 325.115 43.999 325.648 43.999 326.448C43.999 327.115 44.9323 327.782 45.999 327.782C47.4657 327.782 47.999 329.248 47.999 333.115C47.999 338.982 44.9323 341.782 40.9323 339.648C37.599 337.782 37.4657 313.515 40.799 312.182C43.7323 311.115 47.0657 313.382 48.1323 317.248L49.0657 320.448L49.199 316.982C49.4657 311.248 43.8657 308.448 38.6657 311.782Z" fill="black"/>
<path d="M53.3323 325.782V341.115L59.7323 340.848L65.9989 340.715L60.2656 340.182L54.5323 339.648L54.9323 333.382C55.3323 327.382 55.4656 327.115 59.9989 326.315L64.6656 325.515L59.5989 325.248L54.5323 325.115L54.9323 318.715C55.3323 312.448 55.3323 312.448 60.6656 311.648L65.9989 310.848L59.7323 310.582L53.3323 310.448V325.782Z" fill="black"/>
<path d="M75.999 325.648C75.999 335.782 76.5323 341.115 77.4656 341.115C78.399 341.115 78.6656 336.848 78.399 328.448C78.1323 321.515 78.399 315.782 78.799 315.782C79.199 315.782 80.399 318.315 81.3323 321.382C84.399 332.048 88.1323 341.115 89.4656 341.115C90.1323 341.115 90.5323 334.448 90.399 325.382C90.1323 310.048 90.1323 309.915 89.7323 322.048C89.4656 328.848 88.799 334.448 88.2656 334.448C87.7323 334.448 85.4656 329.248 83.3323 322.848C77.599 306.182 75.999 306.848 75.999 325.648Z" fill="black"/>
<path d="M96.2656 312.048C95.199 313.115 94.6656 318.315 94.6656 326.715C94.6656 338.182 94.9323 339.782 97.199 341.115C100.932 342.982 102.266 342.848 105.332 339.782C107.599 337.515 107.999 335.382 107.999 326.315C107.999 320.448 107.332 314.448 106.666 312.982C105.066 310.048 98.799 309.515 96.2656 312.048ZM105.332 315.248C106.132 317.115 106.666 322.448 106.666 327.248C106.666 334.048 106.132 336.315 103.999 338.448C101.866 340.582 100.666 340.848 98.6656 339.782C96.2656 338.582 95.999 336.982 95.999 326.715C95.999 319.382 96.5323 314.448 97.599 313.382C100.266 310.715 103.999 311.515 105.332 315.248Z" fill="black"/>
<path d="M113.599 311.382L117.199 311.915L117.732 326.848L118.132 341.782L118.399 326.848L118.666 311.915L122.399 311.382C124.399 311.115 122.399 310.848 117.999 310.848C113.599 310.848 111.599 311.115 113.599 311.382Z" fill="black"/>
<path d="M134.666 325.782C134.666 335.115 135.199 341.115 135.999 341.115C136.799 341.115 137.332 338.048 137.332 334.448C137.332 327.915 137.466 327.782 141.466 327.782C143.732 327.782 145.199 327.248 144.666 326.448C144.266 325.648 142.399 325.115 140.532 325.115C137.599 325.115 137.332 324.582 137.332 318.582V311.915L142.399 311.382C146.932 310.982 146.799 310.848 141.066 310.715L134.666 310.448V325.782Z" fill="black"/>
<path d="M152.266 312.048C149.732 314.582 150.132 337.782 152.799 340.315C155.599 343.115 158.132 342.982 161.332 339.782C163.599 337.515 163.999 335.382 163.999 326.315C163.999 320.448 163.332 314.448 162.666 312.982C161.066 310.048 154.799 309.515 152.266 312.048ZM161.332 314.315C161.999 315.782 162.666 321.115 162.666 326.315C162.666 334.048 162.132 336.315 159.999 338.448C157.866 340.582 156.666 340.848 154.666 339.782C152.266 338.582 151.999 336.982 151.999 326.715C151.999 319.382 152.532 314.448 153.599 313.382C155.999 310.982 159.732 311.515 161.332 314.315Z" fill="black"/>
<path d="M168.266 324.715C167.999 338.582 168.266 339.782 170.666 341.115C174.399 343.115 178.532 341.515 180.132 337.515C181.732 333.115 181.732 310.448 179.999 310.448C179.199 310.448 178.666 316.048 178.666 324.448C178.666 336.582 178.399 338.582 176.132 339.648C174.399 340.582 173.066 340.582 171.599 339.382C169.866 338.182 169.332 334.715 168.932 323.782L168.532 309.782L168.266 324.715Z" fill="black"/>
<path d="M184.266 325.782C183.866 336.315 184.266 341.115 185.199 341.115C186.132 341.115 186.666 336.582 186.799 328.048V315.115L191.599 328.048C194.132 335.248 196.799 341.115 197.466 341.115C198.132 341.115 198.532 334.048 198.399 325.382L198.132 309.782L197.332 323.115C196.932 330.448 196.266 335.515 195.732 334.448C195.199 333.382 193.199 327.648 191.066 321.915C189.066 316.048 186.799 311.115 185.999 310.848C185.199 310.582 184.532 316.315 184.266 325.782Z" fill="black"/>
<path d="M202.666 325.782V341.115H207.732C215.066 341.115 215.999 339.515 215.999 326.315C215.999 312.982 214.666 310.448 207.199 310.448H202.666V325.782ZM213.332 314.315C215.199 317.915 215.066 336.182 213.066 338.182C212.132 339.115 209.732 339.782 207.732 339.782H203.999V325.782V311.782H207.999C210.532 311.782 212.399 312.715 213.332 314.315Z" fill="black"/>
<path d="M590.399 351.115L577.999 375.782L575.732 370.848C574.399 368.048 571.732 362.182 569.866 357.782C567.866 353.382 565.999 350.448 565.732 351.382C565.466 352.182 567.732 358.182 570.799 364.715C573.866 371.115 576.266 377.648 576.132 379.115C576.132 380.582 571.599 396.715 566.266 415.115L556.399 448.448L548.532 448.848L540.666 449.248L535.199 435.382L529.732 421.515L534.132 405.515C539.332 386.448 540.799 378.582 539.066 380.448C538.266 381.115 535.999 389.248 533.999 398.448C531.999 407.648 529.999 415.915 529.466 416.848C528.799 418.048 523.599 406.582 515.599 386.848C508.532 369.382 502.399 353.915 501.999 352.448C499.732 345.915 496.799 340.582 496.266 342.182C495.999 343.115 496.799 346.048 497.999 348.582C503.199 359.515 514.666 388.182 514.132 388.848C513.732 389.115 511.199 388.048 508.399 386.448C497.066 379.648 494.266 378.315 492.399 378.715C491.332 378.982 496.266 382.048 503.332 385.782L516.266 392.448L526.799 418.448C532.666 432.715 537.732 445.648 538.132 447.115C538.799 449.648 538.266 449.782 529.332 449.382C520.132 448.848 519.999 448.982 519.999 452.182C519.999 454.048 521.199 461.382 522.666 468.448C524.132 475.515 525.332 481.915 525.332 482.582C525.332 483.248 509.866 483.782 490.132 483.782H455.066L454.266 476.982C452.399 461.648 438.532 441.915 424.266 434.048C400.132 420.848 371.866 424.982 352.266 444.582C343.066 453.782 337.999 463.382 335.599 475.915L333.999 483.782L187.332 484.182L40.6656 484.448L187.732 484.848L334.666 485.115V490.982C334.666 504.448 343.066 521.915 354.532 531.915C369.466 545.115 381.999 548.315 415.999 547.382C441.332 546.715 450.399 545.248 459.066 540.182C467.732 535.115 463.599 528.582 449.732 524.982C446.532 524.182 443.999 522.982 443.999 522.315C443.999 521.648 451.999 521.115 461.732 521.115C493.866 521.115 518.266 526.982 521.466 535.382C523.599 540.982 521.866 544.715 516.132 547.782C498.799 556.582 447.599 555.915 307.332 545.115C206.132 537.248 194.132 536.582 153.999 536.582C119.999 536.448 112.799 536.848 105.599 538.715C95.599 541.515 90.9323 544.448 89.8657 548.582C88.1323 555.648 92.2657 559.782 104.932 563.248C114.266 565.915 169.599 567.248 195.999 565.515C208.932 564.715 201.599 564.448 163.999 564.448C128.666 564.448 113.199 563.915 107.732 562.715C85.7323 557.648 85.7323 544.582 107.732 539.515C121.866 536.315 188.799 537.515 251.332 542.315C371.999 551.382 397.599 553.115 432.399 554.582C497.199 557.382 523.999 552.848 523.999 538.982C523.999 527.115 500.532 519.782 462.399 519.782C452.799 519.782 446.666 519.248 446.666 518.448C446.666 516.715 476.932 516.715 489.999 518.582C504.532 520.582 516.666 524.582 521.732 529.115C525.332 532.315 525.999 533.782 525.999 539.115C525.999 544.315 525.332 545.915 522.266 548.582C512.666 556.715 484.399 559.515 432.132 557.248C393.732 555.515 385.732 555.115 307.332 549.115C213.066 541.915 198.399 540.982 163.332 540.182C110.132 538.982 89.999 542.848 93.999 553.515C94.9323 555.648 98.1323 557.248 107.332 559.915C114.132 561.782 176.399 562.982 197.332 561.515C208.932 560.715 200.932 560.448 165.332 560.448C115.466 560.448 103.066 559.382 96.9323 554.315C94.5323 552.448 94.2657 551.515 95.4657 549.515C101.599 539.248 147.999 538.582 262.666 547.248C419.866 559.115 458.799 561.115 486.799 558.715C508.666 556.848 517.732 554.315 523.599 548.448C528.532 543.515 529.199 539.248 525.866 532.315C521.199 522.448 498.532 516.048 465.732 515.648C456.666 515.515 449.332 514.982 449.332 514.448C449.332 513.915 450.532 510.048 451.999 505.782C453.466 501.515 454.666 495.115 454.666 491.515V485.115H489.999H525.332L527.199 489.515C530.666 498.048 534.532 499.782 550.266 499.782C566.532 499.782 570.799 498.048 573.999 490.182L575.999 485.115L606.932 484.715L637.999 484.448L606.932 484.048L575.866 483.782L576.799 478.715C577.199 476.048 578.666 468.448 579.999 462.048C581.732 453.515 581.999 450.048 580.799 449.648C579.999 449.382 574.532 448.982 568.532 448.848L557.732 448.448L560.932 438.182C563.866 428.582 564.399 427.648 569.999 424.448C573.332 422.582 578.799 419.515 582.266 417.515C585.732 415.648 587.866 413.782 586.932 413.382C586.132 413.115 583.599 414.182 581.466 415.648C579.332 417.248 577.199 418.448 576.799 418.448C576.399 418.448 573.866 419.915 571.199 421.782C568.532 423.648 565.999 424.848 565.732 424.582C565.332 424.315 568.132 413.648 571.866 400.848C579.866 373.515 589.599 352.982 595.599 350.715C610.399 344.982 621.999 339.782 622.399 338.582C622.932 336.848 617.466 338.848 603.332 345.648C598.266 348.182 593.732 350.048 593.466 349.782C593.199 349.515 595.732 344.182 599.199 337.782C602.532 331.515 604.799 326.448 603.999 326.448C603.332 326.448 597.199 337.515 590.399 351.115ZM397.466 432.715C390.666 446.315 383.999 477.915 383.999 497.115C383.999 501.515 383.466 505.115 382.932 505.115C382.266 505.115 378.666 504.182 374.932 503.115L367.999 500.982V494.315C367.999 478.048 376.799 447.515 385.332 434.048C388.932 428.315 389.732 427.782 394.666 427.782H399.999L397.466 432.715ZM409.599 431.915C409.332 432.982 407.866 437.248 406.399 441.515C404.399 446.982 403.066 448.982 401.732 448.448C400.666 448.048 398.266 447.782 396.532 447.782C392.666 447.782 392.799 446.582 397.999 434.982C400.932 428.182 401.199 428.048 405.466 428.982C408.399 429.648 409.866 430.715 409.599 431.915ZM380.399 440.715C373.599 454.982 368.266 473.915 367.066 488.715C366.666 494.848 365.732 499.782 365.199 499.782C364.532 499.782 361.332 498.448 357.999 496.848L351.866 493.915L352.532 485.782L353.199 477.782L351.866 484.982C351.199 488.982 350.399 492.448 350.266 492.715C349.999 492.848 346.666 490.848 342.799 488.182L335.732 483.248L336.666 477.115C337.732 469.648 343.599 456.848 349.199 449.782C353.599 444.448 365.866 434.448 368.266 434.448C368.932 434.448 367.732 437.648 365.466 441.515C361.199 448.982 353.332 471.115 353.466 475.248C353.466 476.715 354.932 472.715 356.799 466.582C361.732 449.782 370.266 434.315 375.999 431.515C378.532 430.182 381.866 429.115 383.332 429.115C385.866 429.115 385.599 430.048 380.399 440.715ZM419.866 433.782L426.399 436.982L424.399 444.715C423.332 448.982 422.132 452.848 421.866 453.248C421.466 453.915 407.732 449.782 405.599 448.448C405.466 448.182 406.399 445.248 407.732 441.648C409.066 438.048 410.666 434.048 411.066 432.715C412.132 429.782 412.132 429.782 419.866 433.782ZM433.999 442.848L439.066 447.248L436.799 454.848L434.532 462.582L430.932 460.448C422.532 455.382 422.666 455.915 425.066 446.715C426.266 442.182 427.599 438.448 428.132 438.448C428.532 438.448 431.199 440.448 433.999 442.848ZM405.599 450.582C415.599 452.715 429.599 460.315 437.732 468.315C447.732 478.048 448.532 479.115 446.666 482.315C445.332 484.982 444.932 484.848 437.199 478.448C424.532 467.915 406.132 459.782 395.066 459.782C391.466 459.782 390.666 459.248 390.666 456.982C390.666 452.848 393.199 449.115 395.999 449.115C397.332 449.115 401.732 449.782 405.599 450.582ZM444.399 455.382C448.932 462.582 451.199 469.515 450.266 473.382C449.466 476.582 449.332 476.582 442.532 470.315L435.732 464.048L437.466 457.248C438.399 453.515 439.599 450.448 440.266 450.448C440.799 450.448 442.666 452.715 444.399 455.382ZM408.132 463.782C418.532 466.982 430.799 474.182 438.266 481.382C443.732 486.715 443.732 486.982 441.999 490.582C440.932 492.582 439.466 494.582 438.799 495.115C438.132 495.515 432.799 492.582 426.932 488.582C416.266 481.382 405.999 476.848 394.399 474.182C387.732 472.582 386.932 471.248 388.799 464.048C389.866 460.182 396.399 460.048 408.132 463.782ZM405.066 478.582C413.866 481.648 424.266 487.515 431.332 493.515L436.532 498.048L432.799 502.982C430.799 505.782 428.266 508.315 427.199 508.715C426.132 509.115 421.866 506.848 417.732 503.648C409.999 497.915 397.066 490.715 389.999 488.182C386.132 486.848 385.999 486.448 386.399 480.582L386.932 474.315L392.399 475.248C395.332 475.648 401.066 477.248 405.066 478.582ZM453.332 483.115C453.332 490.048 452.932 490.982 445.066 501.382C434.266 515.515 414.666 535.115 405.066 541.515C397.866 546.182 397.199 546.448 389.466 545.648C384.932 545.115 381.332 544.315 381.332 543.782C381.332 543.248 383.866 541.648 386.932 540.315C394.932 536.715 411.066 526.048 420.666 517.915C431.332 508.982 441.732 496.048 447.066 484.848C449.332 479.915 451.732 475.915 452.399 475.915C452.932 475.782 453.332 479.115 453.332 483.115ZM356.266 497.648C371.866 504.582 389.866 508.715 415.332 511.115L424.666 512.048L420.666 515.382C416.799 518.715 416.799 518.715 396.132 518.048C372.799 517.248 365.332 515.648 348.532 507.915C336.932 502.448 335.999 501.115 335.999 489.648V485.115L342.532 489.782C345.999 492.315 352.266 495.915 356.266 497.648ZM399.199 493.782C404.532 496.448 411.732 500.982 415.199 503.782L421.599 509.115H414.532C410.532 509.115 402.399 508.448 396.399 507.515L385.332 506.048V497.515C385.332 487.382 385.732 487.248 399.199 493.782ZM451.466 502.315C446.666 518.448 435.199 532.315 420.666 539.515C413.066 543.248 401.866 546.448 404.666 544.048C405.466 543.515 410.399 539.382 415.866 535.115C424.532 528.048 444.399 506.448 450.266 497.648C453.332 492.848 453.732 494.582 451.466 502.315ZM347.866 509.115C362.932 516.582 391.999 522.315 407.599 520.715C415.866 519.782 415.866 519.915 404.799 527.648C395.732 533.915 393.066 534.182 375.866 530.982C359.466 528.048 350.266 524.982 347.466 521.915C345.199 519.382 338.666 507.382 338.666 505.782C338.666 504.582 339.866 504.982 347.866 509.115ZM360.132 528.982C366.932 531.382 379.066 533.915 388.666 534.848C392.532 535.115 392.532 535.248 385.732 538.848C381.866 540.848 377.866 542.448 376.666 542.448C372.266 542.448 352.132 530.182 351.999 527.382C351.999 526.182 351.732 526.048 360.132 528.982Z" fill="black"/>
<path d="M6.39899 484.715C8.79899 484.982 12.399 484.982 14.399 484.715C16.399 484.448 14.399 484.182 9.99899 484.182C5.59899 484.182 3.99899 484.448 6.39899 484.715Z" fill="black"/>
<path d="M236.666 557.115C223.466 558.448 215.332 559.515 218.666 559.648C221.999 559.648 234.266 558.848 245.866 557.782C265.466 556.048 269.599 556.048 267.732 557.782C267.466 558.182 257.332 559.382 245.199 560.448C213.999 563.248 212.132 563.515 228.666 562.848C247.466 562.182 268.266 559.915 269.866 558.448C271.866 556.448 269.332 554.448 264.932 554.582C262.532 554.715 249.866 555.915 236.666 557.115Z" fill="black"/>
</svg>
